<mxfile host="Electron" modified="2023-11-23T23:41:54.083Z" agent="Mozilla/5.0 (Windows NT 10.0; Win64; x64) AppleWebKit/537.36 (KHTML, like Gecko) draw.io/22.0.2 Chrome/114.0.5735.289 Electron/25.8.4 Safari/537.36" etag="flVazfr5mT3vPLS2j5HY" version="22.0.2" type="device">
  <diagram name="Strona-1" id="h2WLkj2qyGADKgaHyaSV">
    <mxGraphModel dx="1434" dy="844" grid="1" gridSize="10" guides="1" tooltips="1" connect="1" arrows="1" fold="1" page="1" pageScale="1" pageWidth="827" pageHeight="1169" math="0" shadow="0">
      <root>
        <mxCell id="0" />
        <mxCell id="1" parent="0" />
        <mxCell id="EYUodT9akqzmMVGfxFc3-4" value="" style="endArrow=none;html=1;rounded=0;" parent="1" edge="1">
          <mxGeometry width="50" height="50" relative="1" as="geometry">
            <mxPoint x="60" y="220" as="sourcePoint" />
            <mxPoint x="760" y="220" as="targetPoint" />
          </mxGeometry>
        </mxCell>
        <mxCell id="EYUodT9akqzmMVGfxFc3-5" value="" style="endArrow=none;html=1;rounded=0;" parent="1" edge="1">
          <mxGeometry width="50" height="50" relative="1" as="geometry">
            <mxPoint x="60" y="660" as="sourcePoint" />
            <mxPoint x="60" y="220" as="targetPoint" />
          </mxGeometry>
        </mxCell>
        <mxCell id="EYUodT9akqzmMVGfxFc3-6" value="" style="endArrow=none;html=1;rounded=0;" parent="1" edge="1">
          <mxGeometry width="50" height="50" relative="1" as="geometry">
            <mxPoint x="60" y="250" as="sourcePoint" />
            <mxPoint x="760" y="250" as="targetPoint" />
          </mxGeometry>
        </mxCell>
        <mxCell id="EYUodT9akqzmMVGfxFc3-9" value="ilustracja" style="whiteSpace=wrap;html=1;aspect=fixed;dashed=1;" parent="1" vertex="1">
          <mxGeometry x="80" y="270" width="140" height="140" as="geometry" />
        </mxCell>
        <mxCell id="EYUodT9akqzmMVGfxFc3-11" value="krótki opis bazy danych" style="rounded=0;whiteSpace=wrap;html=1;dashed=1;align=center;verticalAlign=middle;" parent="1" vertex="1">
          <mxGeometry x="230" y="300" width="510" height="110" as="geometry" />
        </mxCell>
        <mxCell id="EYUodT9akqzmMVGfxFc3-12" value="&lt;b&gt;Turystyczna baza danych miejscowości w Polsce&lt;/b&gt;" style="rounded=0;whiteSpace=wrap;html=1;dashed=1;align=left;verticalAlign=middle;fillColor=none;strokeColor=none;" parent="1" vertex="1">
          <mxGeometry x="230" y="270" width="510" height="20" as="geometry" />
        </mxCell>
        <mxCell id="EYUodT9akqzmMVGfxFc3-13" value="" style="endArrow=none;html=1;rounded=0;" parent="1" edge="1">
          <mxGeometry width="50" height="50" relative="1" as="geometry">
            <mxPoint x="760" y="660" as="sourcePoint" />
            <mxPoint x="760" y="220" as="targetPoint" />
          </mxGeometry>
        </mxCell>
        <mxCell id="EYUodT9akqzmMVGfxFc3-14" value="" style="html=1;verticalLabelPosition=bottom;align=center;labelBackgroundColor=#ffffff;verticalAlign=top;strokeWidth=2;shadow=0;dashed=0;shape=mxgraph.ios7.icons.home;" parent="1" vertex="1">
          <mxGeometry x="690" y="228.75" width="20" height="12.5" as="geometry" />
        </mxCell>
        <mxCell id="EYUodT9akqzmMVGfxFc3-15" value="" style="html=1;verticalLabelPosition=bottom;align=center;labelBackgroundColor=#ffffff;verticalAlign=top;strokeWidth=2;shadow=0;dashed=0;shape=mxgraph.ios7.icons.back;fontFamily=Helvetica;fontSize=12;" parent="1" vertex="1">
          <mxGeometry x="740" y="230" width="11.76" height="10" as="geometry" />
        </mxCell>
        <mxCell id="EYUodT9akqzmMVGfxFc3-16" value="" style="html=1;verticalLabelPosition=bottom;align=center;labelBackgroundColor=#ffffff;verticalAlign=top;strokeWidth=2;shadow=0;dashed=0;shape=mxgraph.ios7.icons.reload;fontFamily=Helvetica;fontSize=12;" parent="1" vertex="1">
          <mxGeometry x="720" y="230" width="10" height="10" as="geometry" />
        </mxCell>
        <mxCell id="EYUodT9akqzmMVGfxFc3-18" value="[1]" style="text;html=1;strokeColor=none;fillColor=none;align=center;verticalAlign=middle;whiteSpace=wrap;rounded=0;fontSize=12;fontFamily=Helvetica;fontColor=default;" parent="1" vertex="1">
          <mxGeometry x="770" y="228.75" width="20" height="10" as="geometry" />
        </mxCell>
        <mxCell id="EYUodT9akqzmMVGfxFc3-19" value="" style="endArrow=classic;html=1;rounded=0;fontFamily=Helvetica;fontSize=12;fontColor=default;exitX=0;exitY=0.75;exitDx=0;exitDy=0;" parent="1" source="EYUodT9akqzmMVGfxFc3-18" target="EYUodT9akqzmMVGfxFc3-15" edge="1">
          <mxGeometry width="50" height="50" relative="1" as="geometry">
            <mxPoint x="690" y="200" as="sourcePoint" />
            <mxPoint x="740" y="150" as="targetPoint" />
          </mxGeometry>
        </mxCell>
        <mxCell id="EYUodT9akqzmMVGfxFc3-21" value="" style="shape=flexArrow;endArrow=classic;html=1;rounded=0;fontFamily=Helvetica;fontSize=12;fontColor=default;startWidth=9.30232558139535;endWidth=9.30232558139535;startSize=5.425581395348837;endSize=2.8674418604651164;width=4.651162790697675;" parent="1" edge="1">
          <mxGeometry width="50" height="50" relative="1" as="geometry">
            <mxPoint x="680" y="234.88" as="sourcePoint" />
            <mxPoint x="660" y="234.88" as="targetPoint" />
          </mxGeometry>
        </mxCell>
        <mxCell id="EYUodT9akqzmMVGfxFc3-22" value="[2]" style="text;html=1;strokeColor=none;fillColor=none;align=center;verticalAlign=middle;whiteSpace=wrap;rounded=0;fontSize=12;fontFamily=Helvetica;fontColor=default;" parent="1" vertex="1">
          <mxGeometry x="730" y="200" width="40" height="10" as="geometry" />
        </mxCell>
        <mxCell id="EYUodT9akqzmMVGfxFc3-23" value="" style="endArrow=classic;html=1;rounded=0;fontFamily=Helvetica;fontSize=12;fontColor=default;exitX=0.25;exitY=1;exitDx=0;exitDy=0;entryX=1;entryY=0;entryDx=0;entryDy=0;entryPerimeter=0;" parent="1" source="EYUodT9akqzmMVGfxFc3-22" target="EYUodT9akqzmMVGfxFc3-16" edge="1">
          <mxGeometry width="50" height="50" relative="1" as="geometry">
            <mxPoint x="680" y="230" as="sourcePoint" />
            <mxPoint x="730" y="180" as="targetPoint" />
          </mxGeometry>
        </mxCell>
        <mxCell id="EYUodT9akqzmMVGfxFc3-24" value="[3]" style="text;html=1;strokeColor=none;fillColor=none;align=center;verticalAlign=middle;whiteSpace=wrap;rounded=0;fontSize=12;fontFamily=Helvetica;fontColor=default;" parent="1" vertex="1">
          <mxGeometry x="690" y="200" width="20" height="10" as="geometry" />
        </mxCell>
        <mxCell id="EYUodT9akqzmMVGfxFc3-25" value="" style="endArrow=classic;html=1;rounded=0;fontFamily=Helvetica;fontSize=12;fontColor=default;entryX=0.437;entryY=-0.082;entryDx=0;entryDy=0;entryPerimeter=0;exitX=0.5;exitY=1;exitDx=0;exitDy=0;" parent="1" source="EYUodT9akqzmMVGfxFc3-24" target="EYUodT9akqzmMVGfxFc3-14" edge="1">
          <mxGeometry width="50" height="50" relative="1" as="geometry">
            <mxPoint x="710" y="160" as="sourcePoint" />
            <mxPoint x="700" y="170" as="targetPoint" />
          </mxGeometry>
        </mxCell>
        <mxCell id="EYUodT9akqzmMVGfxFc3-27" value="[4]" style="text;html=1;strokeColor=none;fillColor=none;align=center;verticalAlign=middle;whiteSpace=wrap;rounded=0;fontSize=12;fontFamily=Helvetica;fontColor=default;" parent="1" vertex="1">
          <mxGeometry x="640" y="200" width="20" height="10" as="geometry" />
        </mxCell>
        <mxCell id="EYUodT9akqzmMVGfxFc3-28" value="" style="endArrow=classic;html=1;rounded=0;fontFamily=Helvetica;fontSize=12;fontColor=default;exitX=0.748;exitY=1.065;exitDx=0;exitDy=0;exitPerimeter=0;" parent="1" source="EYUodT9akqzmMVGfxFc3-27" edge="1">
          <mxGeometry width="50" height="50" relative="1" as="geometry">
            <mxPoint x="620" y="230" as="sourcePoint" />
            <mxPoint x="660" y="230" as="targetPoint" />
          </mxGeometry>
        </mxCell>
        <mxCell id="EYUodT9akqzmMVGfxFc3-30" value="Lista miejscowości" style="rounded=0;whiteSpace=wrap;html=1;dashed=1;align=center;verticalAlign=middle;fontStyle=1;fillColor=none;strokeColor=none;" parent="1" vertex="1">
          <mxGeometry x="210" y="430" width="190" height="20" as="geometry" />
        </mxCell>
        <mxCell id="EYUodT9akqzmMVGfxFc3-31" value="krótki opis procesu przeglądania miejscowości" style="rounded=0;whiteSpace=wrap;html=1;dashed=1;align=center;verticalAlign=middle;" parent="1" vertex="1">
          <mxGeometry x="210" y="460" width="190" height="140" as="geometry" />
        </mxCell>
        <mxCell id="EYUodT9akqzmMVGfxFc3-34" value="" style="endArrow=none;html=1;rounded=0;fontFamily=Helvetica;fontSize=12;fontColor=default;" parent="1" edge="1">
          <mxGeometry width="50" height="50" relative="1" as="geometry">
            <mxPoint x="60" y="660" as="sourcePoint" />
            <mxPoint x="760" y="660" as="targetPoint" />
          </mxGeometry>
        </mxCell>
        <mxCell id="EYUodT9akqzmMVGfxFc3-36" value="Otwórz" style="rounded=1;whiteSpace=wrap;html=1;shadow=0;dashed=0;labelBackgroundColor=none;strokeColor=default;strokeWidth=2;align=center;verticalAlign=top;fontFamily=Helvetica;fontSize=12;fontColor=default;fillColor=default;gradientColor=none;" parent="1" vertex="1">
          <mxGeometry x="232.5" y="610" width="145" height="30" as="geometry" />
        </mxCell>
        <mxCell id="99icuVEXUHL0vRiBvz0g-1" value="&lt;b&gt;Legenda:&lt;/b&gt;&lt;br&gt;[1] Przycisk wylogowania&lt;span style=&quot;white-space: pre;&quot;&gt;&#x9;&lt;/span&gt;&lt;span style=&quot;white-space: pre;&quot;&gt;&#x9;&lt;span style=&quot;white-space: pre;&quot;&gt;&#x9;&lt;/span&gt;&lt;span style=&quot;white-space: pre;&quot;&gt;&#x9;&lt;span style=&quot;white-space: pre;&quot;&gt;&#x9;&lt;/span&gt;&lt;span style=&quot;white-space: pre;&quot;&gt;&#x9;&lt;span style=&quot;white-space: pre;&quot;&gt;&#x9;&lt;/span&gt;&lt;/span&gt;&lt;/span&gt;&lt;/span&gt;[2] Przycisk odświeżenia interfejsu&lt;br&gt;[3] Przycisk otwarcia ekranu domowego&lt;span style=&quot;white-space: pre;&quot;&gt;&#x9;&lt;/span&gt;&lt;span style=&quot;white-space: pre;&quot;&gt;&#x9;&lt;span style=&quot;white-space: pre;&quot;&gt;&#x9;&lt;/span&gt;&lt;span style=&quot;white-space: pre;&quot;&gt;&#x9;&lt;/span&gt;&lt;span style=&quot;white-space: pre;&quot;&gt;&#x9;&lt;/span&gt;&lt;/span&gt;[4] Przycisk otwarcia uprzednio otwartego ekranu&lt;br&gt;[5] Przycisk otwarcia ekranu szegółów swojego konta" style="text;html=1;align=left;verticalAlign=middle;resizable=0;points=[];autosize=1;strokeColor=none;fillColor=none;dashed=1;" parent="1" vertex="1">
          <mxGeometry x="110" y="665" width="610" height="70" as="geometry" />
        </mxCell>
        <mxCell id="4y9uAKwaGuDf2SDvPEmf-2" value="login" style="rounded=0;whiteSpace=wrap;html=1;dashed=1;" parent="1" vertex="1">
          <mxGeometry x="70" y="225" width="100" height="20" as="geometry" />
        </mxCell>
        <mxCell id="4y9uAKwaGuDf2SDvPEmf-3" value="rola" style="rounded=0;whiteSpace=wrap;html=1;dashed=1;" parent="1" vertex="1">
          <mxGeometry x="180" y="225" width="100" height="20" as="geometry" />
        </mxCell>
        <mxCell id="VIWfpXCc-5nAANhtUp7i-4" value="Ulubione miejscowości" style="rounded=0;whiteSpace=wrap;html=1;dashed=1;align=center;verticalAlign=middle;fillColor=none;strokeColor=none;fontStyle=1" parent="1" vertex="1">
          <mxGeometry x="430" y="430" width="190" height="20" as="geometry" />
        </mxCell>
        <mxCell id="VIWfpXCc-5nAANhtUp7i-5" value="krótki opis procesu przeglądania ulubionych miejscowości" style="rounded=0;whiteSpace=wrap;html=1;dashed=1;align=center;verticalAlign=middle;" parent="1" vertex="1">
          <mxGeometry x="430" y="460" width="190" height="140" as="geometry" />
        </mxCell>
        <mxCell id="VIWfpXCc-5nAANhtUp7i-6" value="Otwórz" style="rounded=1;whiteSpace=wrap;html=1;shadow=0;dashed=0;labelBackgroundColor=none;strokeColor=default;strokeWidth=2;align=center;verticalAlign=top;fontFamily=Helvetica;fontSize=12;fontColor=default;fillColor=default;gradientColor=none;" parent="1" vertex="1">
          <mxGeometry x="452.5" y="610" width="145" height="30" as="geometry" />
        </mxCell>
        <mxCell id="VIWfpXCc-5nAANhtUp7i-7" value="&amp;nbsp;&amp;nbsp;" style="text;html=1;strokeColor=none;fillColor=none;align=center;verticalAlign=middle;whiteSpace=wrap;rounded=0;" parent="1" vertex="1">
          <mxGeometry x="40" y="208.75" width="40" height="521.25" as="geometry" />
        </mxCell>
        <mxCell id="Rl6XVx4YqUosmEP56eWX-7" value="" style="sketch=0;pointerEvents=1;shadow=0;dashed=0;html=1;labelPosition=center;verticalLabelPosition=bottom;verticalAlign=top;align=center;shape=mxgraph.mscae.intune.account_portal" parent="1" vertex="1">
          <mxGeometry x="630" y="223.75" width="16.5" height="20" as="geometry" />
        </mxCell>
        <mxCell id="Rl6XVx4YqUosmEP56eWX-8" value="[5]" style="text;html=1;strokeColor=none;fillColor=none;align=center;verticalAlign=middle;whiteSpace=wrap;rounded=0;" parent="1" vertex="1">
          <mxGeometry x="610" y="190" width="20" height="30" as="geometry" />
        </mxCell>
        <mxCell id="Rl6XVx4YqUosmEP56eWX-9" value="" style="endArrow=classic;html=1;rounded=0;exitX=1;exitY=0.75;exitDx=0;exitDy=0;entryX=0.5;entryY=0;entryDx=0;entryDy=0;entryPerimeter=0;" parent="1" source="Rl6XVx4YqUosmEP56eWX-8" target="Rl6XVx4YqUosmEP56eWX-7" edge="1">
          <mxGeometry width="50" height="50" relative="1" as="geometry">
            <mxPoint x="580" y="240" as="sourcePoint" />
            <mxPoint x="630" y="190" as="targetPoint" />
          </mxGeometry>
        </mxCell>
      </root>
    </mxGraphModel>
  </diagram>
</mxfile>
